<svg width="14" height="14" viewBox="0 0 14 14" fill="none" xmlns="http://www.w3.org/2000/svg">
<rect width="14" height="14" fill="#D2D2D2"/>
<g clip-path="url(#clip0_1_2)">
<rect width="390" height="844" transform="translate(-323 -474)" fill="#161616"/>
<rect width="390" height="672" transform="translate(-323 -136)" fill="#161616"/>
<rect x="-307" y="-74" width="358" height="198" rx="6" fill="#1E1E1E"/>
<path d="M6.99998 0.333344C3.31798 0.333344 0.333313 3.31801 0.333313 7.00001C0.333313 10.682 3.31798 13.6667 6.99998 13.6667C10.682 13.6667 13.6666 10.682 13.6666 7.00001C13.6666 3.31801 10.682 0.333344 6.99998 0.333344ZM4.49598 1.91534L6.50131 3.11534V4.57734L4.64065 5.92934L3.27798 5.45801L2.88665 3.10201C3.34875 2.61446 3.89363 2.21269 4.49598 1.91534ZM1.41398 7.95934L2.96531 6.40801L4.32531 6.87801L5.04665 9.10001L4.39998 10.15L2.20465 10.0207C1.80768 9.39246 1.53896 8.69189 1.41398 7.95934ZM6.01998 12.582L5.23065 10.7093L5.87265 9.66468H8.12065L8.72865 10.7187L8.03531 12.572C7.36946 12.695 6.68702 12.6983 6.01998 12.582ZM11.5946 10.3173L9.57865 10.1907L8.95331 9.10801L9.67798 6.87801L11.02 6.41401L12.5613 8.09401C12.4041 8.89644 12.0742 9.65508 11.5946 10.3173ZM11.1146 3.10401L10.722 5.45934L9.36198 5.92934L7.50131 4.57734V3.11468L9.50265 1.91468C10.1061 2.21258 10.6519 2.61528 11.1146 3.10401Z" fill="white"/>
</g>
<defs>
<clipPath id="clip0_1_2">
<rect width="390" height="844" fill="white" transform="translate(-323 -474)"/>
</clipPath>
</defs>
</svg>
