<svg width="365" height="302" viewBox="0 0 365 302" fill="none" xmlns="http://www.w3.org/2000/svg">
<circle cx="182.406" cy="12" r="11" fill="#F97066" stroke="white" stroke-width="2"/>
<path d="M177.096 16V14.956H179.064V8.596H179.688L177.288 10.06V8.86L179.412 7.54H180.312V14.956H182.16V16H177.096ZM183.847 16V15.076L186.751 12.04C187.127 11.648 187.407 11.28 187.591 10.936C187.775 10.592 187.867 10.236 187.867 9.868C187.867 9.412 187.723 9.068 187.435 8.836C187.155 8.604 186.747 8.488 186.211 8.488C185.787 8.488 185.387 8.564 185.011 8.716C184.643 8.868 184.287 9.1 183.943 9.412L183.511 8.464C183.847 8.152 184.263 7.904 184.759 7.72C185.263 7.528 185.795 7.432 186.355 7.432C187.235 7.432 187.911 7.632 188.383 8.032C188.863 8.432 189.103 9.004 189.103 9.748C189.103 10.276 188.975 10.784 188.719 11.272C188.463 11.752 188.079 12.248 187.567 12.76L185.059 15.292V14.956H189.451V16H183.847Z" fill="white"/>
<path d="M154.606 41V31.13H156.062V35.568H156.09L160.626 31.13H162.432L157.112 36.254L157.126 35.568L162.796 41H160.934L156.09 36.394H156.062V41H154.606ZM163.539 41V39.334H165.205V41H163.539ZM170.93 41V31.13H172.05L178.112 39.082H177.762V31.13H179.12V41H178.014L171.966 33.048H172.288V41H170.93ZM184.006 41.126C183.381 41.126 182.835 40.9813 182.368 40.692C181.901 40.4027 181.537 39.9827 181.276 39.432C181.024 38.8813 180.898 38.228 180.898 37.472C180.898 36.7067 181.024 36.0533 181.276 35.512C181.537 34.9707 181.901 34.5553 182.368 34.266C182.835 33.9673 183.381 33.818 184.006 33.818C184.622 33.818 185.159 33.972 185.616 34.28C186.073 34.588 186.377 35.008 186.526 35.54H186.372L186.512 33.944H187.884C187.856 34.2333 187.828 34.5227 187.8 34.812C187.781 35.092 187.772 35.3673 187.772 35.638V41H186.358V39.432H186.512C186.363 39.9547 186.055 40.37 185.588 40.678C185.131 40.9767 184.603 41.126 184.006 41.126ZM184.356 40.02C184.963 40.02 185.448 39.8053 185.812 39.376C186.185 38.9467 186.372 38.312 186.372 37.472C186.372 36.632 186.185 36.002 185.812 35.582C185.448 35.1527 184.963 34.938 184.356 34.938C183.74 34.938 183.245 35.1527 182.872 35.582C182.508 36.002 182.326 36.632 182.326 37.472C182.326 38.312 182.508 38.9467 182.872 39.376C183.236 39.8053 183.731 40.02 184.356 40.02ZM191.839 41L188.815 33.944H190.327L192.707 39.838H192.301L194.723 33.944H196.165L193.127 41H191.839ZM199.852 41.126C199.226 41.126 198.68 40.9813 198.214 40.692C197.747 40.4027 197.383 39.9827 197.122 39.432C196.87 38.8813 196.744 38.228 196.744 37.472C196.744 36.7067 196.87 36.0533 197.122 35.512C197.383 34.9707 197.747 34.5553 198.214 34.266C198.68 33.9673 199.226 33.818 199.852 33.818C200.468 33.818 201.004 33.972 201.462 34.28C201.919 34.588 202.222 35.008 202.372 35.54H202.218L202.358 33.944H203.73C203.702 34.2333 203.674 34.5227 203.646 34.812C203.627 35.092 203.618 35.3673 203.618 35.638V41H202.204V39.432H202.358C202.208 39.9547 201.9 40.37 201.434 40.678C200.976 40.9767 200.449 41.126 199.852 41.126ZM200.202 40.02C200.808 40.02 201.294 39.8053 201.658 39.376C202.031 38.9467 202.218 38.312 202.218 37.472C202.218 36.632 202.031 36.002 201.658 35.582C201.294 35.1527 200.808 34.938 200.202 34.938C199.586 34.938 199.091 35.1527 198.718 35.582C198.354 36.002 198.172 36.632 198.172 37.472C198.172 38.312 198.354 38.9467 198.718 39.376C199.082 39.8053 199.576 40.02 200.202 40.02ZM208.103 41.126C207.515 41.126 206.974 41.0513 206.479 40.902C205.984 40.7527 205.574 40.5427 205.247 40.272L205.681 39.306C206.026 39.5673 206.409 39.7633 206.829 39.894C207.249 40.0247 207.678 40.09 208.117 40.09C208.63 40.09 209.018 40.0013 209.279 39.824C209.54 39.6373 209.671 39.3853 209.671 39.068C209.671 38.8253 209.587 38.6293 209.419 38.48C209.26 38.3307 208.994 38.2187 208.621 38.144L207.277 37.878C206.68 37.7473 206.227 37.5233 205.919 37.206C205.611 36.8887 205.457 36.4827 205.457 35.988C205.457 35.568 205.569 35.1947 205.793 34.868C206.026 34.5413 206.353 34.2847 206.773 34.098C207.202 33.9113 207.702 33.818 208.271 33.818C208.794 33.818 209.279 33.8927 209.727 34.042C210.175 34.1913 210.548 34.406 210.847 34.686L210.399 35.624C210.11 35.3813 209.783 35.1947 209.419 35.064C209.055 34.924 208.686 34.854 208.313 34.854C207.79 34.854 207.403 34.952 207.151 35.148C206.899 35.344 206.773 35.6007 206.773 35.918C206.773 36.1607 206.848 36.3613 206.997 36.52C207.156 36.6693 207.403 36.786 207.739 36.87L209.083 37.136C209.718 37.2667 210.194 37.4813 210.511 37.78C210.828 38.0787 210.987 38.48 210.987 38.984C210.987 39.4227 210.866 39.8053 210.623 40.132C210.38 40.4587 210.044 40.706 209.615 40.874C209.186 41.042 208.682 41.126 208.103 41.126Z" fill="#DADADA"/>
<circle cx="82.5308" cy="76" r="11" fill="#F97066" stroke="white" stroke-width="2"/>
<path d="M79.0468 80.108C78.4708 80.108 77.9188 80.024 77.3908 79.856C76.8628 79.68 76.4228 79.432 76.0708 79.112L76.5028 78.164C76.8948 78.468 77.2948 78.692 77.7028 78.836C78.1108 78.98 78.5468 79.052 79.0108 79.052C79.6028 79.052 80.0508 78.928 80.3548 78.68C80.6668 78.432 80.8228 78.076 80.8228 77.612C80.8228 77.156 80.6668 76.812 80.3548 76.58C80.0508 76.34 79.5988 76.22 78.9988 76.22H77.6908V75.212H78.9028C79.4148 75.212 79.8228 75.084 80.1268 74.828C80.4308 74.564 80.5828 74.208 80.5828 73.76C80.5828 73.352 80.4428 73.04 80.1628 72.824C79.8828 72.6 79.4828 72.488 78.9628 72.488C78.0828 72.488 77.3108 72.796 76.6468 73.412L76.2268 72.464C76.5548 72.136 76.9708 71.884 77.4748 71.708C77.9788 71.524 78.5068 71.432 79.0588 71.432C79.9068 71.432 80.5748 71.628 81.0628 72.02C81.5508 72.404 81.7948 72.94 81.7948 73.628C81.7948 74.148 81.6468 74.592 81.3508 74.96C81.0628 75.328 80.6668 75.572 80.1628 75.692V75.56C80.7628 75.656 81.2228 75.896 81.5428 76.28C81.8708 76.656 82.0348 77.128 82.0348 77.696C82.0348 78.448 81.7668 79.04 81.2308 79.472C80.7028 79.896 79.9748 80.108 79.0468 80.108ZM86.3261 80.108C85.3501 80.108 84.5901 79.9 84.0461 79.484C83.5021 79.068 83.2301 78.488 83.2301 77.744C83.2301 77.152 83.4101 76.664 83.7701 76.28C84.1301 75.888 84.6021 75.652 85.1861 75.572V75.788C84.6581 75.676 84.2341 75.432 83.9141 75.056C83.6021 74.68 83.4461 74.224 83.4461 73.688C83.4461 72.984 83.7021 72.432 84.2141 72.032C84.7261 71.632 85.4301 71.432 86.3261 71.432C87.2301 71.432 87.9381 71.632 88.4501 72.032C88.9621 72.432 89.2181 72.984 89.2181 73.688C89.2181 74.224 89.0661 74.684 88.7621 75.068C88.4661 75.444 88.0581 75.68 87.5381 75.776V75.572C88.1141 75.652 88.5741 75.888 88.9181 76.28C89.2621 76.664 89.4341 77.152 89.4341 77.744C89.4341 78.488 89.1621 79.068 88.6181 79.484C88.0741 79.9 87.3101 80.108 86.3261 80.108ZM86.3261 79.124C86.9741 79.124 87.4581 79.004 87.7781 78.764C88.0981 78.516 88.2581 78.148 88.2581 77.66C88.2581 77.172 88.0981 76.808 87.7781 76.568C87.4581 76.328 86.9741 76.208 86.3261 76.208C85.6781 76.208 85.1941 76.328 84.8741 76.568C84.5541 76.808 84.3941 77.172 84.3941 77.66C84.3941 78.148 84.5541 78.516 84.8741 78.764C85.2021 79.004 85.6861 79.124 86.3261 79.124ZM86.3261 75.224C86.8861 75.224 87.3101 75.1 87.5981 74.852C87.8941 74.596 88.0421 74.248 88.0421 73.808C88.0421 73.376 87.8941 73.036 87.5981 72.788C87.3101 72.54 86.8861 72.416 86.3261 72.416C85.7741 72.416 85.3501 72.54 85.0541 72.788C84.7581 73.036 84.6101 73.376 84.6101 73.808C84.6101 74.248 84.7581 74.596 85.0541 74.852C85.3501 75.1 85.7741 75.224 86.3261 75.224Z" fill="white"/>
<path d="M64.4564 105V95.13H70.7844V96.292H65.9124V99.456H70.4624V100.618H65.9124V105H64.4564ZM75.276 105.126C74.1374 105.126 73.2414 104.804 72.588 104.16C71.9347 103.516 71.608 102.625 71.608 101.486C71.608 100.749 71.748 100.105 72.028 99.554C72.3174 99.0033 72.714 98.5787 73.218 98.28C73.7314 97.972 74.324 97.818 74.996 97.818C75.6587 97.818 76.214 97.958 76.662 98.238C77.11 98.518 77.4507 98.9147 77.684 99.428C77.9174 99.932 78.034 100.529 78.034 101.22V101.668H72.714V100.856H77.068L76.83 101.038C76.83 100.338 76.6714 99.7967 76.354 99.414C76.046 99.022 75.598 98.826 75.01 98.826C74.3567 98.826 73.8527 99.0547 73.498 99.512C73.1434 99.96 72.966 100.581 72.966 101.374V101.514C72.966 102.345 73.1667 102.97 73.568 103.39C73.9787 103.81 74.5574 104.02 75.304 104.02C75.7147 104.02 76.0974 103.964 76.452 103.852C76.816 103.731 77.1614 103.535 77.488 103.264L77.95 104.23C77.6234 104.519 77.2267 104.743 76.76 104.902C76.2934 105.051 75.7987 105.126 75.276 105.126ZM79.6566 105V94.696H81.0706V105H79.6566ZM83.1429 105V97.944H84.5569V105H83.1429ZM83.0309 96.474V95.004H84.6689V96.474H83.0309ZM86.6293 108.024V99.638C86.6293 99.3673 86.6153 99.092 86.5873 98.812C86.5686 98.5227 86.5453 98.2333 86.5173 97.944H87.8893L88.0293 99.54H87.8753C88.0246 99.008 88.3233 98.588 88.7713 98.28C89.2286 97.972 89.7699 97.818 90.3953 97.818C91.0206 97.818 91.5666 97.9673 92.0333 98.266C92.4999 98.5553 92.8593 98.9707 93.1113 99.512C93.3726 100.053 93.5033 100.707 93.5033 101.472C93.5033 102.228 93.3726 102.881 93.1113 103.432C92.8593 103.983 92.4999 104.403 92.0333 104.692C91.5666 104.981 91.0206 105.126 90.3953 105.126C89.7793 105.126 89.2426 104.977 88.7853 104.678C88.3373 104.37 88.0386 103.955 87.8893 103.432H88.0433V108.024H86.6293ZM90.0453 104.02C90.6613 104.02 91.1513 103.805 91.5153 103.376C91.8886 102.947 92.0753 102.312 92.0753 101.472C92.0753 100.632 91.8886 100.002 91.5153 99.582C91.1513 99.1527 90.6613 98.938 90.0453 98.938C89.4293 98.938 88.9346 99.1527 88.5613 99.582C88.1973 100.002 88.0153 100.632 88.0153 101.472C88.0153 102.312 88.1973 102.947 88.5613 103.376C88.9346 103.805 89.4293 104.02 90.0453 104.02ZM98.4225 105.126C97.2838 105.126 96.3878 104.804 95.7345 104.16C95.0812 103.516 94.7545 102.625 94.7545 101.486C94.7545 100.749 94.8945 100.105 95.1745 99.554C95.4638 99.0033 95.8605 98.5787 96.3645 98.28C96.8778 97.972 97.4705 97.818 98.1425 97.818C98.8052 97.818 99.3605 97.958 99.8085 98.238C100.257 98.518 100.597 98.9147 100.831 99.428C101.064 99.932 101.181 100.529 101.181 101.22V101.668H95.8605V100.856H100.215L99.9765 101.038C99.9765 100.338 99.8178 99.7967 99.5005 99.414C99.1925 99.022 98.7445 98.826 98.1565 98.826C97.5032 98.826 96.9992 99.0547 96.6445 99.512C96.2898 99.96 96.1125 100.581 96.1125 101.374V101.514C96.1125 102.345 96.3132 102.97 96.7145 103.39C97.1252 103.81 97.7038 104.02 98.4505 104.02C98.8612 104.02 99.2438 103.964 99.5985 103.852C99.9625 103.731 100.308 103.535 100.635 103.264L101.097 104.23C100.77 104.519 100.373 104.743 99.9065 104.902C99.4398 105.051 98.9452 105.126 98.4225 105.126Z" fill="#DADADA"/>
<circle cx="182.531" cy="76" r="11" fill="#F97066" stroke="white" stroke-width="2"/>
<path d="M176.471 81V79.956H178.439V73.596H179.063L176.663 75.06V73.86L178.787 72.54H179.687V79.956H181.535V81H176.471ZM185.226 81.108C184.778 81.108 184.33 81.02 183.882 80.844C183.434 80.66 183.058 80.42 182.754 80.124L183.198 79.176C183.494 79.464 183.818 79.684 184.17 79.836C184.522 79.98 184.878 80.052 185.238 80.052C186.006 80.052 186.594 79.784 187.002 79.248C187.418 78.704 187.626 77.896 187.626 76.824V75.804H187.746C187.698 76.228 187.562 76.6 187.338 76.92C187.114 77.24 186.83 77.484 186.486 77.652C186.15 77.82 185.77 77.904 185.346 77.904C184.85 77.904 184.402 77.788 184.002 77.556C183.61 77.324 183.302 77.004 183.078 76.596C182.862 76.188 182.754 75.728 182.754 75.216C182.754 74.672 182.874 74.192 183.114 73.776C183.354 73.352 183.682 73.024 184.098 72.792C184.514 72.552 184.994 72.432 185.538 72.432C186.594 72.432 187.402 72.796 187.962 73.524C188.53 74.244 188.814 75.264 188.814 76.584C188.814 77.552 188.67 78.372 188.382 79.044C188.102 79.716 187.694 80.228 187.158 80.58C186.622 80.932 185.978 81.108 185.226 81.108ZM185.622 76.884C185.958 76.884 186.254 76.812 186.51 76.668C186.766 76.524 186.966 76.324 187.11 76.068C187.254 75.804 187.326 75.504 187.326 75.168C187.326 74.824 187.254 74.524 187.11 74.268C186.966 74.004 186.766 73.8 186.51 73.656C186.254 73.504 185.958 73.428 185.622 73.428C185.286 73.428 184.99 73.504 184.734 73.656C184.486 73.8 184.29 74.004 184.146 74.268C184.002 74.524 183.93 74.824 183.93 75.168C183.93 75.504 184.002 75.804 184.146 76.068C184.29 76.324 184.486 76.524 184.734 76.668C184.99 76.812 185.286 76.884 185.622 76.884Z" fill="white"/>
<path d="M153.963 105V95.13H155.083L161.145 103.082H160.795V95.13H162.153V105H161.047L154.999 97.048H155.321V105H153.963ZM164.337 105V97.944H165.751V105H164.337ZM164.225 96.474V95.004H165.863V96.474H164.225ZM170.526 105.126C169.9 105.126 169.354 104.981 168.888 104.692C168.421 104.403 168.057 103.983 167.796 103.432C167.544 102.881 167.418 102.228 167.418 101.472C167.418 100.707 167.544 100.053 167.796 99.512C168.057 98.9707 168.421 98.5553 168.888 98.266C169.354 97.9673 169.9 97.818 170.526 97.818C171.142 97.818 171.678 97.972 172.136 98.28C172.593 98.588 172.896 99.008 173.046 99.54H172.892L173.032 97.944H174.404C174.376 98.2333 174.348 98.5227 174.32 98.812C174.301 99.092 174.292 99.3673 174.292 99.638V105H172.878V103.432H173.032C172.882 103.955 172.574 104.37 172.108 104.678C171.65 104.977 171.123 105.126 170.526 105.126ZM170.876 104.02C171.482 104.02 171.968 103.805 172.332 103.376C172.705 102.947 172.892 102.312 172.892 101.472C172.892 100.632 172.705 100.002 172.332 99.582C171.968 99.1527 171.482 98.938 170.876 98.938C170.26 98.938 169.765 99.1527 169.392 99.582C169.028 100.002 168.846 100.632 168.846 101.472C168.846 102.312 169.028 102.947 169.392 103.376C169.756 103.805 170.25 104.02 170.876 104.02ZM176.355 105V94.696H177.769V101.024H177.797L180.877 97.944H182.627L178.903 101.654L178.917 101.024L182.935 105H181.143L177.797 101.766H177.769V105H176.355ZM183.806 105V94.696H185.22V99.442H185.024C185.229 98.91 185.561 98.5087 186.018 98.238C186.475 97.958 187.003 97.818 187.6 97.818C188.44 97.818 189.065 98.0513 189.476 98.518C189.887 98.9753 190.092 99.6707 190.092 100.604V105H188.678V100.688C188.678 100.081 188.557 99.6427 188.314 99.372C188.081 99.092 187.707 98.952 187.194 98.952C186.597 98.952 186.116 99.1387 185.752 99.512C185.397 99.876 185.22 100.361 185.22 100.968V105H183.806ZM194.807 105.126C194.182 105.126 193.636 104.981 193.169 104.692C192.702 104.403 192.338 103.983 192.077 103.432C191.825 102.881 191.699 102.228 191.699 101.472C191.699 100.707 191.825 100.053 192.077 99.512C192.338 98.9707 192.702 98.5553 193.169 98.266C193.636 97.9673 194.182 97.818 194.807 97.818C195.423 97.818 195.96 97.972 196.417 98.28C196.874 98.588 197.178 99.008 197.327 99.54H197.173L197.313 97.944H198.685C198.657 98.2333 198.629 98.5227 198.601 98.812C198.582 99.092 198.573 99.3673 198.573 99.638V105H197.159V103.432H197.313C197.164 103.955 196.856 104.37 196.389 104.678C195.932 104.977 195.404 105.126 194.807 105.126ZM195.157 104.02C195.764 104.02 196.249 103.805 196.613 103.376C196.986 102.947 197.173 102.312 197.173 101.472C197.173 100.632 196.986 100.002 196.613 99.582C196.249 99.1527 195.764 98.938 195.157 98.938C194.541 98.938 194.046 99.1527 193.673 99.582C193.309 100.002 193.127 100.632 193.127 101.472C193.127 102.312 193.309 102.947 193.673 103.376C194.037 103.805 194.532 104.02 195.157 104.02ZM203.38 105.126C202.615 105.126 202.036 104.921 201.644 104.51C201.252 104.09 201.056 103.465 201.056 102.634V99.036H199.684V97.944H201.056V96.082L202.47 95.704V97.944H204.43V99.036H202.47V102.508C202.47 103.031 202.563 103.404 202.75 103.628C202.937 103.852 203.207 103.964 203.562 103.964C203.739 103.964 203.893 103.95 204.024 103.922C204.164 103.885 204.29 103.843 204.402 103.796V104.944C204.262 105 204.099 105.042 203.912 105.07C203.725 105.107 203.548 105.126 203.38 105.126ZM208.916 105.126C207.777 105.126 206.881 104.804 206.228 104.16C205.574 103.516 205.248 102.625 205.248 101.486C205.248 100.749 205.388 100.105 205.668 99.554C205.957 99.0033 206.354 98.5787 206.858 98.28C207.371 97.972 207.964 97.818 208.636 97.818C209.298 97.818 209.854 97.958 210.302 98.238C210.75 98.518 211.09 98.9147 211.324 99.428C211.557 99.932 211.674 100.529 211.674 101.22V101.668H206.354V100.856H210.708L210.47 101.038C210.47 100.338 210.311 99.7967 209.994 99.414C209.686 99.022 209.238 98.826 208.65 98.826C207.996 98.826 207.492 99.0547 207.138 99.512C206.783 99.96 206.606 100.581 206.606 101.374V101.514C206.606 102.345 206.806 102.97 207.208 103.39C207.618 103.81 208.197 104.02 208.944 104.02C209.354 104.02 209.737 103.964 210.092 103.852C210.456 103.731 210.801 103.535 211.128 103.264L211.59 104.23C211.263 104.519 210.866 104.743 210.4 104.902C209.933 105.051 209.438 105.126 208.916 105.126Z" fill="#DADADA"/>
<circle cx="281.656" cy="76" r="11" fill="#F97066" stroke="white" stroke-width="2"/>
<path d="M276.402 80V79.076L279.306 76.04C279.682 75.648 279.962 75.28 280.146 74.936C280.33 74.592 280.422 74.236 280.422 73.868C280.422 73.412 280.278 73.068 279.99 72.836C279.71 72.604 279.302 72.488 278.766 72.488C278.342 72.488 277.942 72.564 277.566 72.716C277.198 72.868 276.842 73.1 276.498 73.412L276.066 72.464C276.402 72.152 276.818 71.904 277.314 71.72C277.818 71.528 278.35 71.432 278.91 71.432C279.79 71.432 280.466 71.632 280.938 72.032C281.418 72.432 281.658 73.004 281.658 73.748C281.658 74.276 281.53 74.784 281.274 75.272C281.018 75.752 280.634 76.248 280.122 76.76L277.614 79.292V78.956H282.006V80H276.402ZM286.489 80.108C285.441 80.108 284.633 79.744 284.065 79.016C283.505 78.288 283.225 77.268 283.225 75.956C283.225 74.98 283.369 74.16 283.657 73.496C283.945 72.824 284.353 72.312 284.881 71.96C285.417 71.608 286.061 71.432 286.813 71.432C287.261 71.432 287.709 71.52 288.157 71.696C288.605 71.864 288.981 72.104 289.285 72.416L288.841 73.352C288.545 73.064 288.221 72.848 287.869 72.704C287.517 72.56 287.161 72.488 286.801 72.488C286.025 72.488 285.433 72.76 285.025 73.304C284.617 73.84 284.413 74.644 284.413 75.716V76.736H284.293C284.349 76.304 284.485 75.932 284.701 75.62C284.917 75.3 285.197 75.056 285.541 74.888C285.885 74.72 286.269 74.636 286.693 74.636C287.197 74.636 287.641 74.752 288.025 74.984C288.417 75.216 288.725 75.536 288.949 75.944C289.173 76.344 289.285 76.804 289.285 77.324C289.285 77.86 289.165 78.34 288.925 78.764C288.685 79.188 288.353 79.52 287.929 79.76C287.513 79.992 287.033 80.108 286.489 80.108ZM286.417 79.1C286.753 79.1 287.045 79.028 287.293 78.884C287.549 78.74 287.749 78.54 287.893 78.284C288.037 78.02 288.109 77.716 288.109 77.372C288.109 77.028 288.037 76.728 287.893 76.472C287.749 76.216 287.549 76.016 287.293 75.872C287.045 75.72 286.753 75.644 286.417 75.644C286.081 75.644 285.785 75.72 285.529 75.872C285.273 76.016 285.073 76.216 284.929 76.472C284.785 76.728 284.713 77.028 284.713 77.372C284.713 77.716 284.785 78.02 284.929 78.284C285.073 78.54 285.273 78.74 285.529 78.884C285.785 79.028 286.081 79.1 286.417 79.1Z" fill="white"/>
<path d="M253.321 105V95.13H254.595L258.403 103.712H257.983L261.791 95.13H263.051V105H261.735V97.104H262.197L258.641 105H257.731L254.175 97.104H254.651V105H253.321ZM268.375 105.126C267.665 105.126 267.045 104.981 266.513 104.692C265.99 104.393 265.584 103.969 265.295 103.418C265.015 102.858 264.875 102.195 264.875 101.43C264.875 100.674 265.019 100.025 265.309 99.484C265.598 98.9427 266.004 98.532 266.527 98.252C267.049 97.9627 267.665 97.818 268.375 97.818C268.832 97.818 269.275 97.8973 269.705 98.056C270.134 98.2053 270.489 98.42 270.769 98.7L270.307 99.694C270.045 99.442 269.751 99.2553 269.425 99.134C269.098 99.0033 268.781 98.938 268.473 98.938C267.801 98.938 267.273 99.1527 266.891 99.582C266.508 100.011 266.317 100.632 266.317 101.444C266.317 102.265 266.508 102.895 266.891 103.334C267.273 103.773 267.801 103.992 268.473 103.992C268.771 103.992 269.084 103.936 269.411 103.824C269.737 103.703 270.036 103.511 270.307 103.25L270.769 104.244C270.479 104.524 270.115 104.743 269.677 104.902C269.247 105.051 268.813 105.126 268.375 105.126ZM272.393 105V95.13H273.849V99.568H273.877L278.413 95.13H280.219L274.899 100.254L274.913 99.568L280.583 105H278.721L273.877 100.394H273.849V105H272.393ZM284.443 105.126C283.304 105.126 282.408 104.804 281.755 104.16C281.102 103.516 280.775 102.625 280.775 101.486C280.775 100.749 280.915 100.105 281.195 99.554C281.484 99.0033 281.881 98.5787 282.385 98.28C282.898 97.972 283.491 97.818 284.163 97.818C284.826 97.818 285.381 97.958 285.829 98.238C286.277 98.518 286.618 98.9147 286.851 99.428C287.084 99.932 287.201 100.529 287.201 101.22V101.668H281.881V100.856H286.235L285.997 101.038C285.997 100.338 285.838 99.7967 285.521 99.414C285.213 99.022 284.765 98.826 284.177 98.826C283.524 98.826 283.02 99.0547 282.665 99.512C282.31 99.96 282.133 100.581 282.133 101.374V101.514C282.133 102.345 282.334 102.97 282.735 103.39C283.146 103.81 283.724 104.02 284.471 104.02C284.882 104.02 285.264 103.964 285.619 103.852C285.983 103.731 286.328 103.535 286.655 103.264L287.117 104.23C286.79 104.519 286.394 104.743 285.927 104.902C285.46 105.051 284.966 105.126 284.443 105.126ZM288.824 105V99.638C288.824 99.3673 288.81 99.092 288.782 98.812C288.763 98.5227 288.74 98.2333 288.712 97.944H290.084L290.21 99.428H290.042C290.256 98.9053 290.588 98.5087 291.036 98.238C291.484 97.958 292.002 97.818 292.59 97.818C293.42 97.818 294.046 98.0467 294.466 98.504C294.895 98.9613 295.11 99.6707 295.11 100.632V105H293.696V100.716C293.696 100.091 293.57 99.6427 293.318 99.372C293.075 99.092 292.702 98.952 292.198 98.952C291.6 98.952 291.124 99.1387 290.77 99.512C290.415 99.876 290.238 100.371 290.238 100.996V105H288.824ZM297.122 105V99.638C297.122 99.3673 297.108 99.092 297.08 98.812C297.062 98.5227 297.038 98.2333 297.01 97.944H298.382L298.508 99.428H298.34C298.555 98.9053 298.886 98.5087 299.334 98.238C299.782 97.958 300.3 97.818 300.888 97.818C301.719 97.818 302.344 98.0467 302.764 98.504C303.194 98.9613 303.408 99.6707 303.408 100.632V105H301.994V100.716C301.994 100.091 301.868 99.6427 301.616 99.372C301.374 99.092 301 98.952 300.496 98.952C299.899 98.952 299.423 99.1387 299.068 99.512C298.714 99.876 298.536 100.371 298.536 100.996V105H297.122ZM308.123 105.126C307.498 105.126 306.952 104.981 306.485 104.692C306.019 104.403 305.655 103.983 305.393 103.432C305.141 102.881 305.015 102.228 305.015 101.472C305.015 100.707 305.141 100.053 305.393 99.512C305.655 98.9707 306.019 98.5553 306.485 98.266C306.952 97.9673 307.498 97.818 308.123 97.818C308.739 97.818 309.276 97.972 309.733 98.28C310.191 98.588 310.494 99.008 310.643 99.54H310.489L310.629 97.944H312.001C311.973 98.2333 311.945 98.5227 311.917 98.812C311.899 99.092 311.889 99.3673 311.889 99.638V105H310.475V103.432H310.629C310.48 103.955 310.172 104.37 309.705 104.678C309.248 104.977 308.721 105.126 308.123 105.126ZM308.473 104.02C309.08 104.02 309.565 103.805 309.929 103.376C310.303 102.947 310.489 102.312 310.489 101.472C310.489 100.632 310.303 100.002 309.929 99.582C309.565 99.1527 309.08 98.938 308.473 98.938C307.857 98.938 307.363 99.1527 306.989 99.582C306.625 100.002 306.443 100.632 306.443 101.472C306.443 102.312 306.625 102.947 306.989 103.376C307.353 103.805 307.848 104.02 308.473 104.02Z" fill="#DADADA"/>
<circle cx="33.5308" cy="140" r="11" fill="#F97066" stroke="white" stroke-width="2"/>
<path d="M30.7308 144L34.8828 136.116V136.596H30.2508V135.54H36.0108V136.464L32.0988 144H30.7308Z" fill="white"/>
<circle cx="47.5308" cy="140" r="6" fill="white"/>
<g clip-path="url(#clip0_437_1351)">
<path d="M51.082 137.131L50.5795 136.921V140.308L51.4907 138.11C51.6445 137.728 51.4682 137.289 51.082 137.131ZM43.7695 138.519L45.6295 143C45.6843 143.136 45.7777 143.254 45.8983 143.338C46.0189 143.422 46.1614 143.468 46.3082 143.473C46.4057 143.473 46.507 143.454 46.6045 143.413L49.3682 142.269C49.6495 142.153 49.822 141.875 49.8295 141.598C49.8332 141.5 49.8145 141.391 49.7807 141.294L47.9057 136.813C47.8527 136.675 47.7597 136.557 47.6386 136.474C47.5175 136.39 47.3741 136.345 47.227 136.344C47.1295 136.344 47.032 136.366 46.9382 136.4L44.1782 137.544C43.9948 137.619 43.8487 137.764 43.772 137.947C43.6954 138.129 43.6945 138.335 43.7695 138.519ZM49.8257 137.094C49.8257 136.895 49.7467 136.704 49.6061 136.563C49.4654 136.423 49.2747 136.344 49.0757 136.344H48.532L49.8257 139.471" fill="#F79009"/>
</g>
<path d="M2.16346 169V159.13H3.28346L9.34547 167.082H8.99547V159.13H10.3535V169H9.24747L3.19946 161.048H3.52146V169H2.16346ZM12.3275 169V167.334H13.9935V169H12.3275ZM22.4342 169L18.9762 159.13H20.4882L23.3582 167.656H22.8402L25.8782 159.13H26.9842L29.8402 167.656H29.3642L32.3322 159.13H33.7602L30.2742 169H29.0282L26.2562 160.88H26.5502L23.6662 169H22.4342ZM35.2191 169V161.944H36.6331V169H35.2191ZM35.1071 160.474V159.004H36.7451V160.474H35.1071ZM38.7054 169V158.696H40.1194V169H38.7054ZM42.1918 169V158.696H43.6058V169H42.1918ZM45.6781 169V161.944H47.0921V169H45.6781ZM45.5661 160.474V159.004H47.2041V160.474H45.5661ZM51.8664 169.126C51.2411 169.126 50.6951 168.981 50.2284 168.692C49.7618 168.403 49.3978 167.983 49.1364 167.432C48.8844 166.881 48.7584 166.228 48.7584 165.472C48.7584 164.707 48.8844 164.053 49.1364 163.512C49.3978 162.971 49.7618 162.555 50.2284 162.266C50.6951 161.967 51.2411 161.818 51.8664 161.818C52.4824 161.818 53.0191 161.972 53.4764 162.28C53.9338 162.588 54.2371 163.008 54.3864 163.54H54.2324L54.3724 161.944H55.7444C55.7164 162.233 55.6884 162.523 55.6604 162.812C55.6418 163.092 55.6324 163.367 55.6324 163.638V169H54.2184V167.432H54.3724C54.2231 167.955 53.9151 168.37 53.4484 168.678C52.9911 168.977 52.4638 169.126 51.8664 169.126ZM52.2164 168.02C52.8231 168.02 53.3084 167.805 53.6724 167.376C54.0458 166.947 54.2324 166.312 54.2324 165.472C54.2324 164.632 54.0458 164.002 53.6724 163.582C53.3084 163.153 52.8231 162.938 52.2164 162.938C51.6004 162.938 51.1058 163.153 50.7324 163.582C50.3684 164.002 50.1864 164.632 50.1864 165.472C50.1864 166.312 50.3684 166.947 50.7324 167.376C51.0964 167.805 51.5911 168.02 52.2164 168.02ZM57.6957 169V163.638C57.6957 163.367 57.6817 163.092 57.6537 162.812C57.635 162.523 57.6117 162.233 57.5837 161.944H58.9557L59.0817 163.428H58.9137C59.1097 162.915 59.4083 162.518 59.8097 162.238C60.2203 161.958 60.7103 161.818 61.2797 161.818C61.8583 161.818 62.3297 161.958 62.6937 162.238C63.067 162.509 63.3237 162.929 63.4637 163.498H63.2397C63.4263 162.985 63.7437 162.579 64.1917 162.28C64.6397 161.972 65.1577 161.818 65.7457 161.818C66.5297 161.818 67.1177 162.047 67.5097 162.504C67.9017 162.961 68.0977 163.671 68.0977 164.632V169H66.6837V164.702C66.6837 164.086 66.5763 163.643 66.3617 163.372C66.1563 163.092 65.8203 162.952 65.3537 162.952C64.8123 162.952 64.383 163.139 64.0657 163.512C63.7483 163.885 63.5897 164.389 63.5897 165.024V169H62.1757V164.702C62.1757 164.086 62.0683 163.643 61.8537 163.372C61.6483 163.092 61.3123 162.952 60.8457 162.952C60.3043 162.952 59.8797 163.139 59.5717 163.512C59.2637 163.885 59.1097 164.389 59.1097 165.024V169H57.6957ZM72.5454 169.126C71.9574 169.126 71.4161 169.051 70.9214 168.902C70.4267 168.753 70.0161 168.543 69.6894 168.272L70.1234 167.306C70.4687 167.567 70.8514 167.763 71.2714 167.894C71.6914 168.025 72.1207 168.09 72.5594 168.09C73.0727 168.09 73.4601 168.001 73.7214 167.824C73.9827 167.637 74.1134 167.385 74.1134 167.068C74.1134 166.825 74.0294 166.629 73.8614 166.48C73.7027 166.331 73.4367 166.219 73.0634 166.144L71.7194 165.878C71.1221 165.747 70.6694 165.523 70.3614 165.206C70.0534 164.889 69.8994 164.483 69.8994 163.988C69.8994 163.568 70.0114 163.195 70.2354 162.868C70.4687 162.541 70.7954 162.285 71.2154 162.098C71.6447 161.911 72.1441 161.818 72.7134 161.818C73.2361 161.818 73.7214 161.893 74.1694 162.042C74.6174 162.191 74.9907 162.406 75.2894 162.686L74.8414 163.624C74.5521 163.381 74.2254 163.195 73.8614 163.064C73.4974 162.924 73.1287 162.854 72.7554 162.854C72.2327 162.854 71.8454 162.952 71.5934 163.148C71.3414 163.344 71.2154 163.601 71.2154 163.918C71.2154 164.161 71.2901 164.361 71.4394 164.52C71.5981 164.669 71.8454 164.786 72.1814 164.87L73.5254 165.136C74.1601 165.267 74.6361 165.481 74.9534 165.78C75.2707 166.079 75.4294 166.48 75.4294 166.984C75.4294 167.423 75.3081 167.805 75.0654 168.132C74.8227 168.459 74.4867 168.706 74.0574 168.874C73.6281 169.042 73.1241 169.126 72.5454 169.126Z" fill="#DADADA"/>
<circle cx="134.531" cy="140" r="11" fill="#F97066" stroke="white" stroke-width="2"/>
<path d="M128.027 145V144.076L130.931 141.04C131.307 140.648 131.587 140.28 131.771 139.936C131.955 139.592 132.047 139.236 132.047 138.868C132.047 138.412 131.903 138.068 131.615 137.836C131.335 137.604 130.927 137.488 130.391 137.488C129.967 137.488 129.567 137.564 129.191 137.716C128.823 137.868 128.467 138.1 128.123 138.412L127.691 137.464C128.027 137.152 128.443 136.904 128.939 136.72C129.443 136.528 129.975 136.432 130.535 136.432C131.415 136.432 132.091 136.632 132.563 137.032C133.043 137.432 133.283 138.004 133.283 138.748C133.283 139.276 133.155 139.784 132.899 140.272C132.643 140.752 132.259 141.248 131.747 141.76L129.239 144.292V143.956H133.631V145H128.027ZM137.742 145.108C137.166 145.108 136.614 145.024 136.086 144.856C135.558 144.68 135.118 144.432 134.766 144.112L135.198 143.164C135.59 143.468 135.99 143.692 136.398 143.836C136.806 143.98 137.242 144.052 137.706 144.052C138.298 144.052 138.746 143.928 139.05 143.68C139.362 143.432 139.518 143.076 139.518 142.612C139.518 142.156 139.362 141.812 139.05 141.58C138.746 141.34 138.294 141.22 137.694 141.22H136.386V140.212H137.598C138.11 140.212 138.518 140.084 138.822 139.828C139.126 139.564 139.278 139.208 139.278 138.76C139.278 138.352 139.138 138.04 138.858 137.824C138.578 137.6 138.178 137.488 137.658 137.488C136.778 137.488 136.006 137.796 135.342 138.412L134.922 137.464C135.25 137.136 135.666 136.884 136.17 136.708C136.674 136.524 137.202 136.432 137.754 136.432C138.602 136.432 139.27 136.628 139.758 137.02C140.246 137.404 140.49 137.94 140.49 138.628C140.49 139.148 140.342 139.592 140.046 139.96C139.758 140.328 139.362 140.572 138.858 140.692V140.56C139.458 140.656 139.918 140.896 140.238 141.28C140.566 141.656 140.73 142.128 140.73 142.696C140.73 143.448 140.462 144.04 139.926 144.472C139.398 144.896 138.67 145.108 137.742 145.108Z" fill="white"/>
<path d="M104.63 169V159.13H108.802C109.857 159.13 110.674 159.382 111.252 159.886C111.831 160.381 112.12 161.076 112.12 161.972C112.12 162.56 111.99 163.064 111.728 163.484C111.467 163.904 111.098 164.226 110.622 164.45C110.146 164.665 109.586 164.772 108.942 164.772L109.166 164.548H109.544C109.927 164.548 110.268 164.646 110.566 164.842C110.874 165.038 111.126 165.351 111.322 165.78L112.736 169H111.14L109.74 165.766C109.6 165.383 109.381 165.136 109.082 165.024C108.793 164.912 108.434 164.856 108.004 164.856H106.086V169H104.63ZM106.086 163.75H108.564C109.264 163.75 109.792 163.601 110.146 163.302C110.51 163.003 110.692 162.574 110.692 162.014C110.692 161.445 110.51 161.015 110.146 160.726C109.792 160.437 109.264 160.292 108.564 160.292H106.086V163.75ZM114.124 169V167.334H115.79V169H114.124ZM121.515 169V159.13H127.843V160.292H122.971V163.456H127.521V164.618H122.971V169H121.515ZM129.168 169V163.694C129.168 163.405 129.158 163.115 129.14 162.826C129.13 162.527 129.112 162.233 129.084 161.944H130.456L130.61 163.764H130.386C130.479 163.325 130.638 162.961 130.862 162.672C131.086 162.383 131.356 162.168 131.674 162.028C132 161.888 132.341 161.818 132.696 161.818C132.845 161.818 132.971 161.827 133.074 161.846C133.176 161.855 133.279 161.874 133.382 161.902L133.368 163.162C133.209 163.097 133.069 163.059 132.948 163.05C132.836 163.031 132.696 163.022 132.528 163.022C132.117 163.022 131.767 163.115 131.478 163.302C131.188 163.479 130.969 163.722 130.82 164.03C130.67 164.338 130.596 164.669 130.596 165.024V169H129.168ZM137.639 169.126C136.501 169.126 135.605 168.804 134.951 168.16C134.298 167.516 133.971 166.625 133.971 165.486C133.971 164.749 134.111 164.105 134.391 163.554C134.681 163.003 135.077 162.579 135.581 162.28C136.095 161.972 136.687 161.818 137.359 161.818C138.022 161.818 138.577 161.958 139.025 162.238C139.473 162.518 139.814 162.915 140.047 163.428C140.281 163.932 140.397 164.529 140.397 165.22V165.668H135.077V164.856H139.431L139.193 165.038C139.193 164.338 139.035 163.797 138.717 163.414C138.409 163.022 137.961 162.826 137.373 162.826C136.72 162.826 136.216 163.055 135.861 163.512C135.507 163.96 135.329 164.581 135.329 165.374V165.514C135.329 166.345 135.53 166.97 135.931 167.39C136.342 167.81 136.921 168.02 137.667 168.02C138.078 168.02 138.461 167.964 138.815 167.852C139.179 167.731 139.525 167.535 139.851 167.264L140.313 168.23C139.987 168.519 139.59 168.743 139.123 168.902C138.657 169.051 138.162 169.126 137.639 169.126ZM144.526 169.126C143.677 169.126 143.037 168.897 142.608 168.44C142.188 167.973 141.978 167.259 141.978 166.298V161.944H143.392V166.27C143.392 166.858 143.513 167.292 143.756 167.572C143.999 167.852 144.367 167.992 144.862 167.992C145.422 167.992 145.875 167.805 146.22 167.432C146.565 167.059 146.738 166.564 146.738 165.948V161.944H148.152V169H146.78V167.488H146.962C146.766 168.011 146.453 168.417 146.024 168.706C145.595 168.986 145.095 169.126 144.526 169.126ZM150.223 169V158.696H151.637V169H150.223ZM156.971 169.126C155.833 169.126 154.937 168.804 154.283 168.16C153.63 167.516 153.303 166.625 153.303 165.486C153.303 164.749 153.443 164.105 153.723 163.554C154.013 163.003 154.409 162.579 154.913 162.28C155.427 161.972 156.019 161.818 156.691 161.818C157.354 161.818 157.909 161.958 158.357 162.238C158.805 162.518 159.146 162.915 159.379 163.428C159.613 163.932 159.729 164.529 159.729 165.22V165.668H154.409V164.856H158.763L158.525 165.038C158.525 164.338 158.367 163.797 158.049 163.414C157.741 163.022 157.293 162.826 156.705 162.826C156.052 162.826 155.548 163.055 155.193 163.512C154.839 163.96 154.661 164.581 154.661 165.374V165.514C154.661 166.345 154.862 166.97 155.263 167.39C155.674 167.81 156.253 168.02 156.999 168.02C157.41 168.02 157.793 167.964 158.147 167.852C158.511 167.731 158.857 167.535 159.183 167.264L159.645 168.23C159.319 168.519 158.922 168.743 158.455 168.902C157.989 169.051 157.494 169.126 156.971 169.126ZM161.324 169V163.694C161.324 163.405 161.315 163.115 161.296 162.826C161.287 162.527 161.268 162.233 161.24 161.944H162.612L162.766 163.764H162.542C162.635 163.325 162.794 162.961 163.018 162.672C163.242 162.383 163.513 162.168 163.83 162.028C164.157 161.888 164.497 161.818 164.852 161.818C165.001 161.818 165.127 161.827 165.23 161.846C165.333 161.855 165.435 161.874 165.538 161.902L165.524 163.162C165.365 163.097 165.225 163.059 165.104 163.05C164.992 163.031 164.852 163.022 164.684 163.022C164.273 163.022 163.923 163.115 163.634 163.302C163.345 163.479 163.125 163.722 162.976 164.03C162.827 164.338 162.752 164.669 162.752 165.024V169H161.324Z" fill="#DADADA"/>
<circle cx="230.531" cy="140" r="11" fill="#F97066" stroke="white" stroke-width="2"/>
<path d="M224.027 145V144.076L226.931 141.04C227.307 140.648 227.587 140.28 227.771 139.936C227.955 139.592 228.047 139.236 228.047 138.868C228.047 138.412 227.903 138.068 227.615 137.836C227.335 137.604 226.927 137.488 226.391 137.488C225.967 137.488 225.567 137.564 225.191 137.716C224.823 137.868 224.467 138.1 224.123 138.412L223.691 137.464C224.027 137.152 224.443 136.904 224.939 136.72C225.443 136.528 225.975 136.432 226.535 136.432C227.415 136.432 228.091 136.632 228.563 137.032C229.043 137.432 229.283 138.004 229.283 138.748C229.283 139.276 229.155 139.784 228.899 140.272C228.643 140.752 228.259 141.248 227.747 141.76L225.239 144.292V143.956H229.631V145H224.027ZM233.826 145.108C232.85 145.108 232.09 144.9 231.546 144.484C231.002 144.068 230.73 143.488 230.73 142.744C230.73 142.152 230.91 141.664 231.27 141.28C231.63 140.888 232.102 140.652 232.686 140.572V140.788C232.158 140.676 231.734 140.432 231.414 140.056C231.102 139.68 230.946 139.224 230.946 138.688C230.946 137.984 231.202 137.432 231.714 137.032C232.226 136.632 232.93 136.432 233.826 136.432C234.73 136.432 235.438 136.632 235.95 137.032C236.462 137.432 236.718 137.984 236.718 138.688C236.718 139.224 236.566 139.684 236.262 140.068C235.966 140.444 235.558 140.68 235.038 140.776V140.572C235.614 140.652 236.074 140.888 236.418 141.28C236.762 141.664 236.934 142.152 236.934 142.744C236.934 143.488 236.662 144.068 236.118 144.484C235.574 144.9 234.81 145.108 233.826 145.108ZM233.826 144.124C234.474 144.124 234.958 144.004 235.278 143.764C235.598 143.516 235.758 143.148 235.758 142.66C235.758 142.172 235.598 141.808 235.278 141.568C234.958 141.328 234.474 141.208 233.826 141.208C233.178 141.208 232.694 141.328 232.374 141.568C232.054 141.808 231.894 142.172 231.894 142.66C231.894 143.148 232.054 143.516 232.374 143.764C232.702 144.004 233.186 144.124 233.826 144.124ZM233.826 140.224C234.386 140.224 234.81 140.1 235.098 139.852C235.394 139.596 235.542 139.248 235.542 138.808C235.542 138.376 235.394 138.036 235.098 137.788C234.81 137.54 234.386 137.416 233.826 137.416C233.274 137.416 232.85 137.54 232.554 137.788C232.258 138.036 232.11 138.376 232.11 138.808C232.11 139.248 232.258 139.596 232.554 139.852C232.85 140.1 233.274 140.224 233.826 140.224Z" fill="white"/>
<path d="M210.447 169V159.13H213.863C214.973 159.13 215.911 159.321 216.677 159.704C217.451 160.087 218.035 160.647 218.427 161.384C218.828 162.112 219.029 163.003 219.029 164.058C219.029 165.103 218.828 165.995 218.427 166.732C218.035 167.469 217.451 168.034 216.677 168.426C215.911 168.809 214.973 169 213.863 169H210.447ZM211.903 167.782H213.779C215.048 167.782 215.991 167.474 216.607 166.858C217.232 166.242 217.545 165.309 217.545 164.058C217.545 162.807 217.232 161.879 216.607 161.272C215.991 160.656 215.048 160.348 213.779 160.348H211.903V167.782ZM223.577 169.126C222.952 169.126 222.406 168.981 221.939 168.692C221.473 168.403 221.109 167.983 220.847 167.432C220.595 166.881 220.469 166.228 220.469 165.472C220.469 164.707 220.595 164.053 220.847 163.512C221.109 162.971 221.473 162.555 221.939 162.266C222.406 161.967 222.952 161.818 223.577 161.818C224.193 161.818 224.73 161.972 225.187 162.28C225.645 162.588 225.948 163.008 226.097 163.54H225.943L226.083 161.944H227.455C227.427 162.233 227.399 162.523 227.371 162.812C227.353 163.092 227.343 163.367 227.343 163.638V169H225.929V167.432H226.083C225.934 167.955 225.626 168.37 225.159 168.678C224.702 168.977 224.175 169.126 223.577 169.126ZM223.927 168.02C224.534 168.02 225.019 167.805 225.383 167.376C225.757 166.947 225.943 166.312 225.943 165.472C225.943 164.632 225.757 164.002 225.383 163.582C225.019 163.153 224.534 162.938 223.927 162.938C223.311 162.938 222.817 163.153 222.443 163.582C222.079 164.002 221.897 164.632 221.897 165.472C221.897 166.312 222.079 166.947 222.443 167.376C222.807 167.805 223.302 168.02 223.927 168.02ZM229.407 169V163.638C229.407 163.367 229.393 163.092 229.365 162.812C229.346 162.523 229.323 162.233 229.295 161.944H230.667L230.793 163.428H230.625C230.839 162.905 231.171 162.509 231.619 162.238C232.067 161.958 232.585 161.818 233.173 161.818C234.003 161.818 234.629 162.047 235.049 162.504C235.478 162.961 235.693 163.671 235.693 164.632V169H234.279V164.716C234.279 164.091 234.153 163.643 233.901 163.372C233.658 163.092 233.285 162.952 232.781 162.952C232.183 162.952 231.707 163.139 231.353 163.512C230.998 163.876 230.821 164.371 230.821 164.996V169H229.407ZM237.705 169V161.944H239.119V169H237.705ZM237.593 160.474V159.004H239.231V160.474H237.593ZM241.192 169V158.696H242.606V169H241.192ZM247.702 169.126C247.002 169.126 246.395 168.981 245.882 168.692C245.369 168.393 244.972 167.973 244.692 167.432C244.412 166.881 244.272 166.228 244.272 165.472C244.272 164.716 244.412 164.067 244.692 163.526C244.972 162.975 245.369 162.555 245.882 162.266C246.395 161.967 247.002 161.818 247.702 161.818C248.402 161.818 249.009 161.967 249.522 162.266C250.045 162.555 250.446 162.975 250.726 163.526C251.015 164.067 251.16 164.716 251.16 165.472C251.16 166.228 251.015 166.881 250.726 167.432C250.446 167.973 250.045 168.393 249.522 168.692C249.009 168.981 248.402 169.126 247.702 169.126ZM247.702 168.02C248.318 168.02 248.808 167.805 249.172 167.376C249.536 166.947 249.718 166.312 249.718 165.472C249.718 164.632 249.536 164.002 249.172 163.582C248.808 163.153 248.318 162.938 247.702 162.938C247.095 162.938 246.61 163.153 246.246 163.582C245.882 164.002 245.7 164.632 245.7 165.472C245.7 166.312 245.877 166.947 246.232 167.376C246.596 167.805 247.086 168.02 247.702 168.02Z" fill="#DADADA"/>
<circle cx="326.156" cy="140" r="11" fill="#F97066" stroke="white" stroke-width="2"/>
<path d="M322.422 144.108C321.846 144.108 321.294 144.024 320.766 143.856C320.238 143.68 319.798 143.432 319.446 143.112L319.878 142.164C320.27 142.468 320.67 142.692 321.078 142.836C321.486 142.98 321.922 143.052 322.386 143.052C322.978 143.052 323.426 142.928 323.73 142.68C324.042 142.432 324.198 142.076 324.198 141.612C324.198 141.156 324.042 140.812 323.73 140.58C323.426 140.34 322.974 140.22 322.374 140.22H321.066V139.212H322.278C322.79 139.212 323.198 139.084 323.502 138.828C323.806 138.564 323.958 138.208 323.958 137.76C323.958 137.352 323.818 137.04 323.538 136.824C323.258 136.6 322.858 136.488 322.338 136.488C321.458 136.488 320.686 136.796 320.022 137.412L319.602 136.464C319.93 136.136 320.346 135.884 320.85 135.708C321.354 135.524 321.882 135.432 322.434 135.432C323.282 135.432 323.95 135.628 324.438 136.02C324.926 136.404 325.17 136.94 325.17 137.628C325.17 138.148 325.022 138.592 324.726 138.96C324.438 139.328 324.042 139.572 323.538 139.692V139.56C324.138 139.656 324.598 139.896 324.918 140.28C325.246 140.656 325.41 141.128 325.41 141.696C325.41 142.448 325.142 143.04 324.606 143.472C324.078 143.896 323.35 144.108 322.422 144.108ZM327.097 144V143.076L330.001 140.04C330.377 139.648 330.657 139.28 330.841 138.936C331.025 138.592 331.117 138.236 331.117 137.868C331.117 137.412 330.973 137.068 330.685 136.836C330.405 136.604 329.997 136.488 329.461 136.488C329.037 136.488 328.637 136.564 328.261 136.716C327.893 136.868 327.537 137.1 327.193 137.412L326.761 136.464C327.097 136.152 327.513 135.904 328.009 135.72C328.513 135.528 329.045 135.432 329.605 135.432C330.485 135.432 331.161 135.632 331.633 136.032C332.113 136.432 332.353 137.004 332.353 137.748C332.353 138.276 332.225 138.784 331.969 139.272C331.713 139.752 331.329 140.248 330.817 140.76L328.309 143.292V142.956H332.701V144H327.097Z" fill="white"/>
<path d="M305.346 169V159.13H309.518C310.573 159.13 311.389 159.382 311.968 159.886C312.547 160.381 312.836 161.076 312.836 161.972C312.836 162.56 312.705 163.064 312.444 163.484C312.183 163.904 311.814 164.226 311.338 164.45C310.862 164.665 310.302 164.772 309.658 164.772L309.882 164.548H310.26C310.643 164.548 310.983 164.646 311.282 164.842C311.59 165.038 311.842 165.351 312.038 165.78L313.452 169H311.856L310.456 165.766C310.316 165.383 310.097 165.136 309.798 165.024C309.509 164.912 309.149 164.856 308.72 164.856H306.802V169H305.346ZM306.802 163.75H309.28C309.98 163.75 310.507 163.601 310.862 163.302C311.226 163.003 311.408 162.574 311.408 162.014C311.408 161.445 311.226 161.015 310.862 160.726C310.507 160.437 309.98 160.292 309.28 160.292H306.802V163.75ZM314.84 169V167.334H316.506V169H314.84ZM322.231 169V159.13H323.687V167.754H328.531V169H322.231ZM332.785 169.126C332.085 169.126 331.478 168.981 330.965 168.692C330.452 168.393 330.055 167.973 329.775 167.432C329.495 166.881 329.355 166.228 329.355 165.472C329.355 164.716 329.495 164.067 329.775 163.526C330.055 162.975 330.452 162.555 330.965 162.266C331.478 161.967 332.085 161.818 332.785 161.818C333.485 161.818 334.092 161.967 334.605 162.266C335.128 162.555 335.529 162.975 335.809 163.526C336.098 164.067 336.243 164.716 336.243 165.472C336.243 166.228 336.098 166.881 335.809 167.432C335.529 167.973 335.128 168.393 334.605 168.692C334.092 168.981 333.485 169.126 332.785 169.126ZM332.785 168.02C333.401 168.02 333.891 167.805 334.255 167.376C334.619 166.947 334.801 166.312 334.801 165.472C334.801 164.632 334.619 164.002 334.255 163.582C333.891 163.153 333.401 162.938 332.785 162.938C332.178 162.938 331.693 163.153 331.329 163.582C330.965 164.002 330.783 164.632 330.783 165.472C330.783 166.312 330.96 166.947 331.315 167.376C331.679 167.805 332.169 168.02 332.785 168.02ZM340.598 169.126C339.982 169.126 339.436 168.981 338.96 168.692C338.493 168.403 338.129 167.983 337.868 167.432C337.616 166.881 337.49 166.228 337.49 165.472C337.49 164.707 337.616 164.053 337.868 163.512C338.129 162.971 338.493 162.555 338.96 162.266C339.436 161.967 339.982 161.818 340.598 161.818C341.205 161.818 341.737 161.972 342.194 162.28C342.661 162.579 342.969 162.989 343.118 163.512H342.95V158.696H344.364V169H342.964V167.404H343.132C342.973 167.936 342.665 168.356 342.208 168.664C341.751 168.972 341.214 169.126 340.598 169.126ZM340.948 168.02C341.555 168.02 342.045 167.805 342.418 167.376C342.791 166.947 342.978 166.312 342.978 165.472C342.978 164.632 342.791 164.002 342.418 163.582C342.045 163.153 341.555 162.938 340.948 162.938C340.332 162.938 339.837 163.153 339.464 163.582C339.1 164.002 338.918 164.632 338.918 165.472C338.918 166.312 339.1 166.947 339.464 167.376C339.837 167.805 340.332 168.02 340.948 168.02ZM346.427 169V161.944H347.841V169H346.427ZM346.315 160.474V159.004H347.953V160.474H346.315Z" fill="#DADADA"/>
<circle cx="182.531" cy="204" r="11" fill="#F97066" stroke="white" stroke-width="2"/>
<path d="M176.471 209V207.956H178.439V201.596H179.063L176.663 203.06V201.86L178.787 200.54H179.687V207.956H181.535V209H176.471ZM185.826 209.108C184.85 209.108 184.098 208.736 183.57 207.992C183.05 207.24 182.79 206.164 182.79 204.764C182.79 203.34 183.05 202.264 183.57 201.536C184.098 200.8 184.85 200.432 185.826 200.432C186.81 200.432 187.562 200.8 188.082 201.536C188.602 202.264 188.862 203.336 188.862 204.752C188.862 206.16 188.598 207.24 188.07 207.992C187.55 208.736 186.802 209.108 185.826 209.108ZM185.826 208.064C186.442 208.064 186.898 207.796 187.194 207.26C187.498 206.724 187.65 205.888 187.65 204.752C187.65 203.608 187.498 202.776 187.194 202.256C186.898 201.728 186.442 201.464 185.826 201.464C185.218 201.464 184.762 201.728 184.458 202.256C184.154 202.776 184.002 203.604 184.002 204.74C184.002 205.884 184.154 206.724 184.458 207.26C184.77 207.796 185.226 208.064 185.826 208.064Z" fill="white"/>
<path d="M146.71 233.126C145.618 233.126 144.699 232.925 143.952 232.524C143.215 232.113 142.659 231.53 142.286 230.774C141.913 230.018 141.726 229.117 141.726 228.072C141.726 227.027 141.922 226.126 142.314 225.37C142.715 224.614 143.285 224.031 144.022 223.62C144.769 223.209 145.665 223.004 146.71 223.004C147.429 223.004 148.054 223.107 148.586 223.312C149.118 223.508 149.594 223.797 150.014 224.18L149.496 225.314C149.197 225.062 148.908 224.861 148.628 224.712C148.348 224.563 148.059 224.455 147.76 224.39C147.461 224.315 147.111 224.278 146.71 224.278C145.581 224.278 144.722 224.609 144.134 225.272C143.546 225.935 143.252 226.873 143.252 228.086C143.252 229.318 143.532 230.256 144.092 230.9C144.661 231.544 145.553 231.866 146.766 231.866C147.186 231.866 147.601 231.829 148.012 231.754C148.423 231.67 148.819 231.549 149.202 231.39L148.922 232.076V228.842H146.486V227.75H150.14V232.412C149.711 232.627 149.183 232.799 148.558 232.93C147.942 233.061 147.326 233.126 146.71 233.126ZM152.231 233V225.944H153.645V233H152.231ZM152.119 224.474V223.004H153.757V224.474H152.119ZM159.483 233.126C158.867 233.126 158.33 232.972 157.873 232.664C157.416 232.356 157.112 231.936 156.963 231.404H157.117V233H155.717V222.696H157.131V227.512H156.963C157.122 226.989 157.425 226.579 157.873 226.28C158.33 225.972 158.867 225.818 159.483 225.818C160.108 225.818 160.654 225.967 161.121 226.266C161.588 226.555 161.947 226.975 162.199 227.526C162.46 228.067 162.591 228.721 162.591 229.486C162.591 230.242 162.46 230.895 162.199 231.446C161.947 231.987 161.583 232.403 161.107 232.692C160.64 232.981 160.099 233.126 159.483 233.126ZM159.133 232.02C159.74 232.02 160.23 231.81 160.603 231.39C160.976 230.961 161.163 230.326 161.163 229.486C161.163 228.637 160.976 228.002 160.603 227.582C160.23 227.153 159.74 226.938 159.133 226.938C158.517 226.938 158.022 227.153 157.649 227.582C157.285 228.002 157.103 228.632 157.103 229.472C157.103 230.312 157.285 230.947 157.649 231.376C158.022 231.805 158.517 232.02 159.133 232.02ZM168.014 233.126C167.398 233.126 166.862 232.972 166.404 232.664C165.947 232.356 165.644 231.936 165.494 231.404H165.648V233H164.248V222.696H165.662V227.512H165.494C165.653 226.989 165.956 226.579 166.404 226.28C166.862 225.972 167.398 225.818 168.014 225.818C168.64 225.818 169.186 225.967 169.652 226.266C170.119 226.555 170.478 226.975 170.73 227.526C170.992 228.067 171.122 228.721 171.122 229.486C171.122 230.242 170.992 230.895 170.73 231.446C170.478 231.987 170.114 232.403 169.638 232.692C169.172 232.981 168.63 233.126 168.014 233.126ZM167.664 232.02C168.271 232.02 168.761 231.81 169.134 231.39C169.508 230.961 169.694 230.326 169.694 229.486C169.694 228.637 169.508 228.002 169.134 227.582C168.761 227.153 168.271 226.938 167.664 226.938C167.048 226.938 166.554 227.153 166.18 227.582C165.816 228.002 165.634 228.632 165.634 229.472C165.634 230.312 165.816 230.947 166.18 231.376C166.554 231.805 167.048 232.02 167.664 232.02ZM175.202 233.126C174.614 233.126 174.072 233.051 173.578 232.902C173.083 232.753 172.672 232.543 172.346 232.272L172.78 231.306C173.125 231.567 173.508 231.763 173.928 231.894C174.348 232.025 174.777 232.09 175.216 232.09C175.729 232.09 176.116 232.001 176.378 231.824C176.639 231.637 176.77 231.385 176.77 231.068C176.77 230.825 176.686 230.629 176.518 230.48C176.359 230.331 176.093 230.219 175.72 230.144L174.376 229.878C173.778 229.747 173.326 229.523 173.018 229.206C172.71 228.889 172.556 228.483 172.556 227.988C172.556 227.568 172.668 227.195 172.892 226.868C173.125 226.541 173.452 226.285 173.872 226.098C174.301 225.911 174.8 225.818 175.37 225.818C175.892 225.818 176.378 225.893 176.826 226.042C177.274 226.191 177.647 226.406 177.946 226.686L177.498 227.624C177.208 227.381 176.882 227.195 176.518 227.064C176.154 226.924 175.785 226.854 175.412 226.854C174.889 226.854 174.502 226.952 174.25 227.148C173.998 227.344 173.872 227.601 173.872 227.918C173.872 228.161 173.946 228.361 174.096 228.52C174.254 228.669 174.502 228.786 174.838 228.87L176.182 229.136C176.816 229.267 177.292 229.481 177.61 229.78C177.927 230.079 178.086 230.48 178.086 230.984C178.086 231.423 177.964 231.805 177.722 232.132C177.479 232.459 177.143 232.706 176.714 232.874C176.284 233.042 175.78 233.126 175.202 233.126ZM179.696 229.724V228.59H183.798V229.724H179.696ZM187.967 233L184.509 223.13H186.021L188.891 231.656H188.373L191.411 223.13H192.517L195.373 231.656H194.897L197.865 223.13H199.293L195.807 233H194.561L191.789 224.88H192.083L189.199 233H187.967ZM200.752 233V222.696H202.166V227.442H201.97C202.176 226.91 202.507 226.509 202.964 226.238C203.422 225.958 203.949 225.818 204.546 225.818C205.386 225.818 206.012 226.051 206.422 226.518C206.833 226.975 207.038 227.671 207.038 228.604V233H205.624V228.688C205.624 228.081 205.503 227.643 205.26 227.372C205.027 227.092 204.654 226.952 204.14 226.952C203.543 226.952 203.062 227.139 202.698 227.512C202.344 227.876 202.166 228.361 202.166 228.968V233H200.752ZM209.051 233V225.944H210.465V233H209.051ZM208.939 224.474V223.004H210.577V224.474H208.939ZM215.281 233.126C214.516 233.126 213.937 232.921 213.545 232.51C213.153 232.09 212.957 231.465 212.957 230.634V227.036H211.585V225.944H212.957V224.082L214.371 223.704V225.944H216.331V227.036H214.371V230.508C214.371 231.031 214.465 231.404 214.651 231.628C214.838 231.852 215.109 231.964 215.463 231.964C215.641 231.964 215.795 231.95 215.925 231.922C216.065 231.885 216.191 231.843 216.303 231.796V232.944C216.163 233 216 233.042 215.813 233.07C215.627 233.107 215.449 233.126 215.281 233.126ZM220.817 233.126C219.678 233.126 218.782 232.804 218.129 232.16C217.476 231.516 217.149 230.625 217.149 229.486C217.149 228.749 217.289 228.105 217.569 227.554C217.858 227.003 218.255 226.579 218.759 226.28C219.272 225.972 219.865 225.818 220.537 225.818C221.2 225.818 221.755 225.958 222.203 226.238C222.651 226.518 222.992 226.915 223.225 227.428C223.458 227.932 223.575 228.529 223.575 229.22V229.668H218.255V228.856H222.609L222.371 229.038C222.371 228.338 222.212 227.797 221.895 227.414C221.587 227.022 221.139 226.826 220.551 226.826C219.898 226.826 219.394 227.055 219.039 227.512C218.684 227.96 218.507 228.581 218.507 229.374V229.514C218.507 230.345 218.708 230.97 219.109 231.39C219.52 231.81 220.098 232.02 220.845 232.02C221.256 232.02 221.638 231.964 221.993 231.852C222.357 231.731 222.702 231.535 223.029 231.264L223.491 232.23C223.164 232.519 222.768 232.743 222.301 232.902C221.834 233.051 221.34 233.126 220.817 233.126Z" fill="#DADADA"/>
<circle cx="136.531" cy="268" r="11" fill="#F97066" stroke="white" stroke-width="2"/>
<path d="M130.027 273V272.076L132.931 269.04C133.307 268.648 133.587 268.28 133.771 267.936C133.955 267.592 134.047 267.236 134.047 266.868C134.047 266.412 133.903 266.068 133.615 265.836C133.335 265.604 132.927 265.488 132.391 265.488C131.967 265.488 131.567 265.564 131.191 265.716C130.823 265.868 130.467 266.1 130.123 266.412L129.691 265.464C130.027 265.152 130.443 264.904 130.939 264.72C131.443 264.528 131.975 264.432 132.535 264.432C133.415 264.432 134.091 264.632 134.563 265.032C135.043 265.432 135.283 266.004 135.283 266.748C135.283 267.276 135.155 267.784 134.899 268.272C134.643 268.752 134.259 269.248 133.747 269.76L131.239 272.292V271.956H135.631V273H130.027ZM139.826 273.108C138.85 273.108 138.098 272.736 137.57 271.992C137.05 271.24 136.79 270.164 136.79 268.764C136.79 267.34 137.05 266.264 137.57 265.536C138.098 264.8 138.85 264.432 139.826 264.432C140.81 264.432 141.562 264.8 142.082 265.536C142.602 266.264 142.862 267.336 142.862 268.752C142.862 270.16 142.598 271.24 142.07 271.992C141.55 272.736 140.802 273.108 139.826 273.108ZM139.826 272.064C140.442 272.064 140.898 271.796 141.194 271.26C141.498 270.724 141.65 269.888 141.65 268.752C141.65 267.608 141.498 266.776 141.194 266.256C140.898 265.728 140.442 265.464 139.826 265.464C139.218 265.464 138.762 265.728 138.458 266.256C138.154 266.776 138.002 267.604 138.002 268.74C138.002 269.884 138.154 270.724 138.458 271.26C138.77 271.796 139.226 272.064 139.826 272.064Z" fill="white"/>
<path d="M102.959 297V287.13H107.075C108.139 287.13 108.956 287.354 109.525 287.802C110.104 288.25 110.393 288.88 110.393 289.692C110.393 290.299 110.211 290.807 109.847 291.218C109.483 291.629 108.984 291.904 108.349 292.044V291.834C109.077 291.927 109.642 292.184 110.043 292.604C110.445 293.024 110.645 293.579 110.645 294.27C110.645 295.147 110.347 295.824 109.749 296.3C109.161 296.767 108.331 297 107.257 297H102.959ZM104.373 295.866H107.103C107.766 295.866 108.284 295.74 108.657 295.488C109.04 295.236 109.231 294.811 109.231 294.214C109.231 293.617 109.04 293.192 108.657 292.94C108.284 292.688 107.766 292.562 107.103 292.562H104.373V295.866ZM104.373 291.442H106.851C107.561 291.442 108.093 291.307 108.447 291.036C108.802 290.765 108.979 290.369 108.979 289.846C108.979 289.323 108.802 288.927 108.447 288.656C108.093 288.385 107.561 288.25 106.851 288.25H104.373V291.442ZM112.084 297V295.334H113.75V297H112.084ZM119.489 299.618C119.34 299.618 119.162 299.609 118.957 299.59C118.752 299.571 118.542 299.539 118.327 299.492V298.316C118.504 298.353 118.672 298.381 118.831 298.4C118.99 298.428 119.13 298.442 119.251 298.442C119.68 298.442 119.998 298.311 120.203 298.05C120.408 297.789 120.511 297.373 120.511 296.804V287.13H121.967V296.818C121.967 297.434 121.878 297.947 121.701 298.358C121.524 298.778 121.253 299.091 120.889 299.296C120.534 299.511 120.068 299.618 119.489 299.618ZM127.185 297.126C126.485 297.126 125.879 296.981 125.365 296.692C124.852 296.393 124.455 295.973 124.175 295.432C123.895 294.881 123.755 294.228 123.755 293.472C123.755 292.716 123.895 292.067 124.175 291.526C124.455 290.975 124.852 290.555 125.365 290.266C125.879 289.967 126.485 289.818 127.185 289.818C127.885 289.818 128.492 289.967 129.005 290.266C129.528 290.555 129.929 290.975 130.209 291.526C130.499 292.067 130.643 292.716 130.643 293.472C130.643 294.228 130.499 294.881 130.209 295.432C129.929 295.973 129.528 296.393 129.005 296.692C128.492 296.981 127.885 297.126 127.185 297.126ZM127.185 296.02C127.801 296.02 128.291 295.805 128.655 295.376C129.019 294.947 129.201 294.312 129.201 293.472C129.201 292.632 129.019 292.002 128.655 291.582C128.291 291.153 127.801 290.938 127.185 290.938C126.579 290.938 126.093 291.153 125.729 291.582C125.365 292.002 125.183 292.632 125.183 293.472C125.183 294.312 125.361 294.947 125.715 295.376C126.079 295.805 126.569 296.02 127.185 296.02ZM132.296 297V286.696H133.71V291.442H133.514C133.72 290.91 134.051 290.509 134.508 290.238C134.966 289.958 135.493 289.818 136.09 289.818C136.93 289.818 137.556 290.051 137.966 290.518C138.377 290.975 138.582 291.671 138.582 292.604V297H137.168V292.688C137.168 292.081 137.047 291.643 136.804 291.372C136.571 291.092 136.198 290.952 135.684 290.952C135.087 290.952 134.606 291.139 134.242 291.512C133.888 291.876 133.71 292.361 133.71 292.968V297H132.296ZM140.595 297V291.638C140.595 291.367 140.581 291.092 140.553 290.812C140.534 290.523 140.511 290.233 140.483 289.944H141.855L141.981 291.428H141.813C142.028 290.905 142.359 290.509 142.807 290.238C143.255 289.958 143.773 289.818 144.361 289.818C145.192 289.818 145.817 290.047 146.237 290.504C146.666 290.961 146.881 291.671 146.881 292.632V297H145.467V292.716C145.467 292.091 145.341 291.643 145.089 291.372C144.846 291.092 144.473 290.952 143.969 290.952C143.372 290.952 142.896 291.139 142.541 291.512C142.186 291.876 142.009 292.371 142.009 292.996V297H140.595ZM151.316 297.126C150.728 297.126 150.187 297.051 149.692 296.902C149.197 296.753 148.787 296.543 148.46 296.272L148.894 295.306C149.239 295.567 149.622 295.763 150.042 295.894C150.462 296.025 150.891 296.09 151.33 296.09C151.843 296.09 152.231 296.001 152.492 295.824C152.753 295.637 152.884 295.385 152.884 295.068C152.884 294.825 152.8 294.629 152.632 294.48C152.473 294.331 152.207 294.219 151.834 294.144L150.49 293.878C149.893 293.747 149.44 293.523 149.132 293.206C148.824 292.889 148.67 292.483 148.67 291.988C148.67 291.568 148.782 291.195 149.006 290.868C149.239 290.541 149.566 290.285 149.986 290.098C150.415 289.911 150.915 289.818 151.484 289.818C152.007 289.818 152.492 289.893 152.94 290.042C153.388 290.191 153.761 290.406 154.06 290.686L153.612 291.624C153.323 291.381 152.996 291.195 152.632 291.064C152.268 290.924 151.899 290.854 151.526 290.854C151.003 290.854 150.616 290.952 150.364 291.148C150.112 291.344 149.986 291.601 149.986 291.918C149.986 292.161 150.061 292.361 150.21 292.52C150.369 292.669 150.616 292.786 150.952 292.87L152.296 293.136C152.931 293.267 153.407 293.481 153.724 293.78C154.041 294.079 154.2 294.48 154.2 294.984C154.2 295.423 154.079 295.805 153.836 296.132C153.593 296.459 153.257 296.706 152.828 296.874C152.399 297.042 151.895 297.126 151.316 297.126ZM158.891 297.126C158.191 297.126 157.584 296.981 157.071 296.692C156.557 296.393 156.161 295.973 155.881 295.432C155.601 294.881 155.461 294.228 155.461 293.472C155.461 292.716 155.601 292.067 155.881 291.526C156.161 290.975 156.557 290.555 157.071 290.266C157.584 289.967 158.191 289.818 158.891 289.818C159.591 289.818 160.197 289.967 160.711 290.266C161.233 290.555 161.635 290.975 161.915 291.526C162.204 292.067 162.349 292.716 162.349 293.472C162.349 294.228 162.204 294.881 161.915 295.432C161.635 295.973 161.233 296.393 160.711 296.692C160.197 296.981 159.591 297.126 158.891 297.126ZM158.891 296.02C159.507 296.02 159.997 295.805 160.361 295.376C160.725 294.947 160.907 294.312 160.907 293.472C160.907 292.632 160.725 292.002 160.361 291.582C159.997 291.153 159.507 290.938 158.891 290.938C158.284 290.938 157.799 291.153 157.435 291.582C157.071 292.002 156.889 292.632 156.889 293.472C156.889 294.312 157.066 294.947 157.421 295.376C157.785 295.805 158.275 296.02 158.891 296.02ZM164.001 297V291.638C164.001 291.367 163.987 291.092 163.959 290.812C163.941 290.523 163.917 290.233 163.889 289.944H165.261L165.387 291.428H165.219C165.434 290.905 165.765 290.509 166.213 290.238C166.661 289.958 167.179 289.818 167.767 289.818C168.598 289.818 169.223 290.047 169.643 290.504C170.073 290.961 170.287 291.671 170.287 292.632V297H168.873V292.716C168.873 292.091 168.747 291.643 168.495 291.372C168.253 291.092 167.879 290.952 167.375 290.952C166.778 290.952 166.302 291.139 165.947 291.512C165.593 291.876 165.415 292.371 165.415 292.996V297H164.001Z" fill="#DADADA"/>
<circle cx="227.531" cy="268" r="11" fill="#F97066" stroke="white" stroke-width="2"/>
<path d="M226.531 271.775C226.083 271.775 225.635 271.687 225.187 271.511C224.739 271.327 224.363 271.087 224.059 270.791L224.503 269.843C224.799 270.131 225.123 270.351 225.475 270.503C225.827 270.647 226.183 270.719 226.543 270.719C227.311 270.719 227.899 270.451 228.307 269.915C228.723 269.371 228.931 268.563 228.931 267.491V266.471H229.051C229.003 266.895 228.867 267.267 228.643 267.587C228.419 267.907 228.135 268.151 227.791 268.319C227.455 268.487 227.075 268.571 226.651 268.571C226.155 268.571 225.707 268.455 225.307 268.223C224.915 267.991 224.607 267.671 224.383 267.263C224.167 266.855 224.059 266.395 224.059 265.883C224.059 265.339 224.179 264.859 224.419 264.443C224.659 264.019 224.987 263.691 225.403 263.459C225.819 263.219 226.299 263.099 226.843 263.099C227.899 263.099 228.707 263.463 229.267 264.191C229.835 264.911 230.119 265.931 230.119 267.251C230.119 268.219 229.975 269.039 229.687 269.711C229.407 270.383 228.999 270.895 228.463 271.247C227.927 271.599 227.283 271.775 226.531 271.775ZM226.927 267.551C227.263 267.551 227.559 267.479 227.815 267.335C228.071 267.191 228.271 266.991 228.415 266.735C228.559 266.471 228.631 266.171 228.631 265.835C228.631 265.491 228.559 265.191 228.415 264.935C228.271 264.671 228.071 264.467 227.815 264.323C227.559 264.171 227.263 264.095 226.927 264.095C226.591 264.095 226.295 264.171 226.039 264.323C225.791 264.467 225.595 264.671 225.451 264.935C225.307 265.191 225.235 265.491 225.235 265.835C225.235 266.171 225.307 266.471 225.451 266.735C225.595 266.991 225.791 267.191 226.039 267.335C226.295 267.479 226.591 267.551 226.927 267.551Z" fill="white"/>
<circle cx="241.531" cy="268" r="6" fill="white"/>
<path d="M242.733 264.359L244.233 265.857C244.298 265.922 244.337 266.008 244.343 266.099C244.348 266.19 244.321 266.28 244.265 266.352L244.234 266.387L242.734 267.89C242.666 267.958 242.576 267.997 242.48 268.001C242.384 268.004 242.291 267.97 242.219 267.907C242.148 267.844 242.103 267.756 242.094 267.66C242.085 267.565 242.113 267.47 242.172 267.395L242.203 267.359L243.062 266.5H239.093C239.001 266.5 238.913 266.466 238.844 266.405C238.775 266.344 238.732 266.26 238.721 266.169L238.718 266.125C238.718 266.033 238.752 265.944 238.813 265.875C238.874 265.807 238.958 265.763 239.049 265.752L239.093 265.75H243.065L242.204 264.89C242.139 264.825 242.1 264.739 242.094 264.648C242.088 264.557 242.116 264.467 242.172 264.395L242.203 264.359C242.268 264.295 242.354 264.256 242.445 264.25C242.536 264.244 242.626 264.272 242.698 264.328L242.733 264.359ZM244.34 269.831L244.342 269.875C244.342 269.966 244.308 270.055 244.247 270.124C244.186 270.192 244.102 270.236 244.011 270.247L243.967 270.25H239.999L240.858 271.109C240.923 271.174 240.962 271.26 240.968 271.351C240.973 271.442 240.946 271.532 240.89 271.604L240.859 271.64C240.794 271.704 240.708 271.743 240.617 271.749C240.526 271.755 240.436 271.727 240.364 271.671L240.329 271.64L238.829 270.141C238.764 270.077 238.725 269.991 238.719 269.9C238.713 269.809 238.741 269.718 238.797 269.646L238.828 269.611L240.328 268.109C240.395 268.042 240.486 268.002 240.582 267.999C240.677 267.995 240.771 268.029 240.842 268.092C240.914 268.155 240.959 268.244 240.968 268.339C240.977 268.434 240.949 268.529 240.89 268.604L240.859 268.64L240 269.5H243.968C244.059 269.5 244.148 269.533 244.217 269.594C244.285 269.655 244.329 269.74 244.34 269.831Z" fill="#F04438"/>
<path d="M202.159 297V288.348H198.785V287.13H206.989V288.348H203.615V297H202.159ZM207.155 297V295.334H208.821V297H207.155ZM213.523 297L217.919 287.13H219.165L223.631 297H222.133L220.915 294.2L221.531 294.592H215.553L216.211 294.2L214.993 297H213.523ZM218.521 288.726L216.393 293.752L216.057 293.43H221.027L220.747 293.752L218.577 288.726H218.521ZM226.345 297L223.671 289.944H225.141L227.227 295.824H226.863L229.005 289.944H230.097L232.225 295.824H231.875L233.961 289.944H235.375L232.687 297H231.399L229.187 291.008H229.845L227.661 297H226.345ZM239.578 297.126C238.878 297.126 238.271 296.981 237.758 296.692C237.245 296.393 236.848 295.973 236.568 295.432C236.288 294.881 236.148 294.228 236.148 293.472C236.148 292.716 236.288 292.067 236.568 291.526C236.848 290.975 237.245 290.555 237.758 290.266C238.271 289.967 238.878 289.818 239.578 289.818C240.278 289.818 240.885 289.967 241.398 290.266C241.921 290.555 242.322 290.975 242.602 291.526C242.891 292.067 243.036 292.716 243.036 293.472C243.036 294.228 242.891 294.881 242.602 295.432C242.322 295.973 241.921 296.393 241.398 296.692C240.885 296.981 240.278 297.126 239.578 297.126ZM239.578 296.02C240.194 296.02 240.684 295.805 241.048 295.376C241.412 294.947 241.594 294.312 241.594 293.472C241.594 292.632 241.412 292.002 241.048 291.582C240.684 291.153 240.194 290.938 239.578 290.938C238.971 290.938 238.486 291.153 238.122 291.582C237.758 292.002 237.576 292.632 237.576 293.472C237.576 294.312 237.753 294.947 238.108 295.376C238.472 295.805 238.962 296.02 239.578 296.02ZM244.689 297V291.638C244.689 291.367 244.675 291.092 244.647 290.812C244.628 290.523 244.605 290.233 244.577 289.944H245.949L246.075 291.428H245.907C246.121 290.905 246.453 290.509 246.901 290.238C247.349 289.958 247.867 289.818 248.455 289.818C249.285 289.818 249.911 290.047 250.331 290.504C250.76 290.961 250.975 291.671 250.975 292.632V297H249.561V292.716C249.561 292.091 249.435 291.643 249.183 291.372C248.94 291.092 248.567 290.952 248.063 290.952C247.465 290.952 246.989 291.139 246.635 291.512C246.28 291.876 246.103 292.371 246.103 292.996V297H244.689ZM252.988 297V289.944H254.402V297H252.988ZM252.876 288.474V287.004H254.514V288.474H252.876ZM256.264 300.178L255.928 299.03C256.367 298.937 256.731 298.825 257.02 298.694C257.319 298.563 257.566 298.391 257.762 298.176C257.958 297.971 258.126 297.705 258.266 297.378L258.616 296.552L258.588 297.126L255.522 289.944H257.034L259.414 295.824H259.036L261.416 289.944H262.872L259.638 297.504C259.433 297.971 259.213 298.363 258.98 298.68C258.747 298.997 258.495 299.254 258.224 299.45C257.953 299.646 257.655 299.8 257.328 299.912C257.001 300.024 256.647 300.113 256.264 300.178ZM263.98 297V289.944H265.394V297H263.98ZM263.868 288.474V287.004H265.506V288.474H263.868Z" fill="#DADADA"/>
<defs>
<clipPath id="clip0_437_1351">
<rect width="9" height="9" fill="white" transform="translate(43.0308 135.5)"/>
</clipPath>
</defs>
</svg>
