<svg width="109" height="32" viewBox="0 0 109 32" fill="none" xmlns="http://www.w3.org/2000/svg">
<path d="M5.952 25.24C4.912 25.24 3.952 25.12 3.072 24.88C2.208 24.624 1.48 24.272 0.888 23.824L1.728 21.808C2.336 22.224 3.008 22.544 3.744 22.768C4.48 22.992 5.224 23.104 5.976 23.104C6.776 23.104 7.368 22.968 7.752 22.696C8.152 22.424 8.352 22.056 8.352 21.592C8.352 21.224 8.224 20.936 7.968 20.728C7.728 20.504 7.336 20.336 6.792 20.224L4.392 19.768C3.368 19.544 2.584 19.16 2.04 18.616C1.512 18.072 1.248 17.36 1.248 16.48C1.248 15.728 1.448 15.064 1.848 14.488C2.264 13.912 2.848 13.464 3.6 13.144C4.368 12.808 5.264 12.64 6.288 12.64C7.184 12.64 8.024 12.76 8.808 13C9.608 13.24 10.28 13.6 10.824 14.08L9.96 16.024C9.464 15.624 8.896 15.312 8.256 15.088C7.616 14.864 6.992 14.752 6.384 14.752C5.552 14.752 4.944 14.904 4.56 15.208C4.176 15.496 3.984 15.872 3.984 16.336C3.984 16.688 4.096 16.984 4.32 17.224C4.56 17.448 4.928 17.616 5.424 17.728L7.824 18.184C8.896 18.392 9.704 18.76 10.248 19.288C10.808 19.8 11.088 20.504 11.088 21.4C11.088 22.2 10.872 22.888 10.44 23.464C10.008 24.04 9.408 24.48 8.64 24.784C7.872 25.088 6.976 25.24 5.952 25.24ZM19.2234 25.24C17.9754 25.24 16.8794 24.984 15.9354 24.472C15.0074 23.96 14.2874 23.232 13.7754 22.288C13.2634 21.328 13.0074 20.192 13.0074 18.88C13.0074 17.568 13.2634 16.448 13.7754 15.52C14.3034 14.592 15.0314 13.88 15.9594 13.384C16.8874 12.888 17.9754 12.64 19.2234 12.64C20.0234 12.64 20.7994 12.768 21.5514 13.024C22.3194 13.264 22.9434 13.616 23.4234 14.08L22.5114 16.168C22.0794 15.768 21.5914 15.472 21.0474 15.28C20.5194 15.072 19.9994 14.968 19.4874 14.968C18.4154 14.968 17.5754 15.304 16.9674 15.976C16.3754 16.648 16.0794 17.624 16.0794 18.904C16.0794 20.184 16.3754 21.168 16.9674 21.856C17.5754 22.544 18.4154 22.888 19.4874 22.888C19.9834 22.888 20.4954 22.792 21.0234 22.6C21.5674 22.408 22.0634 22.112 22.5114 21.712L23.4234 23.776C22.9274 24.24 22.2954 24.6 21.5274 24.856C20.7754 25.112 20.0074 25.24 19.2234 25.24ZM30.9868 25.24C29.7388 25.24 28.6588 24.984 27.7468 24.472C26.8348 23.96 26.1228 23.232 25.6108 22.288C25.1148 21.344 24.8668 20.224 24.8668 18.928C24.8668 17.632 25.1148 16.52 25.6108 15.592C26.1228 14.648 26.8348 13.92 27.7468 13.408C28.6588 12.896 29.7388 12.64 30.9868 12.64C32.2348 12.64 33.3148 12.896 34.2268 13.408C35.1548 13.92 35.8668 14.648 36.3628 15.592C36.8748 16.52 37.1308 17.632 37.1308 18.928C37.1308 20.224 36.8748 21.344 36.3628 22.288C35.8668 23.232 35.1548 23.96 34.2268 24.472C33.3148 24.984 32.2348 25.24 30.9868 25.24ZM30.9868 22.936C31.9308 22.936 32.6828 22.608 33.2428 21.952C33.8028 21.28 34.0828 20.272 34.0828 18.928C34.0828 17.584 33.8028 16.584 33.2428 15.928C32.6828 15.272 31.9308 14.944 30.9868 14.944C30.0428 14.944 29.2908 15.272 28.7308 15.928C28.1708 16.584 27.8908 17.584 27.8908 18.928C27.8908 20.272 28.1708 21.28 28.7308 21.952C29.2908 22.608 30.0428 22.936 30.9868 22.936ZM39.6939 25V15.976C39.6939 15.464 39.6779 14.944 39.6459 14.416C39.6299 13.888 39.5899 13.376 39.5259 12.88H42.4299L42.7659 16.192H42.2859C42.4459 15.392 42.7099 14.728 43.0779 14.2C43.4619 13.672 43.9259 13.28 44.4699 13.024C45.0139 12.768 45.6059 12.64 46.2459 12.64C46.5339 12.64 46.7659 12.656 46.9419 12.688C47.1179 12.704 47.2939 12.744 47.4699 12.808L47.4459 15.448C47.1419 15.32 46.8779 15.24 46.6539 15.208C46.4459 15.176 46.1819 15.16 45.8619 15.16C45.1739 15.16 44.5899 15.304 44.1099 15.592C43.6459 15.88 43.2939 16.28 43.0539 16.792C42.8299 17.304 42.7179 17.888 42.7179 18.544V25H39.6939ZM54.8083 25.24C52.7763 25.24 51.1843 24.68 50.0323 23.56C48.8803 22.44 48.3043 20.904 48.3043 18.952C48.3043 17.688 48.5523 16.584 49.0483 15.64C49.5443 14.696 50.2323 13.96 51.1123 13.432C52.0083 12.904 53.0483 12.64 54.2323 12.64C55.4003 12.64 56.3763 12.888 57.1603 13.384C57.9443 13.88 58.5363 14.576 58.9363 15.472C59.3523 16.368 59.5603 17.416 59.5603 18.616V19.408H50.7283V17.824H57.4243L57.0163 18.16C57.0163 17.04 56.7763 16.184 56.2963 15.592C55.8323 15 55.1523 14.704 54.2563 14.704C53.2643 14.704 52.4963 15.056 51.9523 15.76C51.4243 16.464 51.1603 17.448 51.1603 18.712V19.024C51.1603 20.336 51.4803 21.32 52.1203 21.976C52.7763 22.616 53.6963 22.936 54.8803 22.936C55.5683 22.936 56.2083 22.848 56.8003 22.672C57.4083 22.48 57.9843 22.176 58.5283 21.76L59.4163 23.776C58.8403 24.24 58.1523 24.6 57.3523 24.856C56.5523 25.112 55.7043 25.24 54.8083 25.24ZM62.1008 25V7.336H65.1008V25H62.1008ZM68.3586 25V12.88H71.3586V25H68.3586ZM68.1906 10.6V7.672H71.5266V10.6H68.1906ZM78.1684 25L72.9364 12.88H76.1284L79.9204 22.36H79.1764L83.0644 12.88H86.0644L80.8084 25H78.1684ZM93.2927 25.24C91.2607 25.24 89.6687 24.68 88.5167 23.56C87.3647 22.44 86.7887 20.904 86.7887 18.952C86.7887 17.688 87.0367 16.584 87.5327 15.64C88.0287 14.696 88.7167 13.96 89.5967 13.432C90.4927 12.904 91.5327 12.64 92.7167 12.64C93.8847 12.64 94.8607 12.888 95.6447 13.384C96.4287 13.88 97.0207 14.576 97.4207 15.472C97.8367 16.368 98.0447 17.416 98.0447 18.616V19.408H89.2127V17.824H95.9087L95.5007 18.16C95.5007 17.04 95.2607 16.184 94.7807 15.592C94.3167 15 93.6367 14.704 92.7407 14.704C91.7487 14.704 90.9807 15.056 90.4367 15.76C89.9087 16.464 89.6447 17.448 89.6447 18.712V19.024C89.6447 20.336 89.9647 21.32 90.6047 21.976C91.2607 22.616 92.1807 22.936 93.3647 22.936C94.0527 22.936 94.6927 22.848 95.2847 22.672C95.8927 22.48 96.4687 22.176 97.0127 21.76L97.9007 23.776C97.3247 24.24 96.6367 24.6 95.8367 24.856C95.0367 25.112 94.1887 25.24 93.2927 25.24Z" fill="white"/>
<circle cx="104" cy="5" r="5" fill="#F63D68"/>
</svg>
