<svg width="16" height="16" viewBox="0 0 16 16" fill="none" xmlns="http://www.w3.org/2000/svg">
<rect width="16" height="16" fill="#D2D2D2"/>
<g clip-path="url(#clip0_1_2)">
<rect width="390" height="844" transform="translate(-52 -559)" fill="#161616"/>
<rect width="390" height="672" transform="translate(-52 -221)" fill="#161616"/>
<rect x="-36" y="-159" width="358" height="198" rx="6" fill="#1E1E1E"/>
<path d="M10.138 1.52666L12.8047 4.19066C12.9195 4.30537 12.9886 4.45806 12.9989 4.62008C13.0092 4.7821 12.9601 4.94231 12.8607 5.07066L12.8053 5.13333L10.1387 7.80399C10.019 7.92483 9.85762 7.99535 9.68763 8.00112C9.51765 8.00688 9.35189 7.94746 9.22428 7.83502C9.09667 7.72257 9.01686 7.5656 9.0012 7.39624C8.98553 7.22688 9.03519 7.05794 9.14 6.92399L9.19533 6.86133L10.722 5.33333H3.66667C3.50338 5.33331 3.34578 5.27336 3.22375 5.16485C3.10173 5.05634 3.02377 4.90683 3.00467 4.74466L3 4.66599C3.00002 4.50271 3.05997 4.3451 3.16848 4.22308C3.27698 4.10106 3.4265 4.0231 3.58867 4.00399L3.66667 3.99933H10.7267L9.196 2.47066C9.08112 2.35595 9.01204 2.20326 9.00173 2.04124C8.99142 1.87922 9.04059 1.71901 9.14 1.59066L9.19533 1.52733C9.31004 1.41244 9.46273 1.34337 9.62475 1.33306C9.78677 1.32275 9.94699 1.37191 10.0753 1.47133L10.138 1.52666ZM12.994 11.2547L12.998 11.3327C12.998 11.4959 12.938 11.6536 12.8295 11.7756C12.721 11.8976 12.5715 11.9756 12.4093 11.9947L12.3313 11.9993H5.276L6.80467 13.528C6.91955 13.6427 6.98863 13.7954 6.99894 13.9574C7.00925 14.1194 6.96008 14.2796 6.86067 14.408L6.80533 14.4707C6.69062 14.5855 6.53793 14.6546 6.37591 14.6649C6.2139 14.6752 6.05368 14.6261 5.92533 14.5267L5.86267 14.4707L3.196 11.8067C3.08112 11.6919 3.01204 11.5393 3.00173 11.3772C2.99142 11.2152 3.04058 11.055 3.14 10.9267L3.19533 10.864L5.862 8.19466C5.98169 8.07382 6.14305 8.00331 6.31303 7.99754C6.48302 7.99177 6.64878 8.05119 6.77639 8.16364C6.904 8.27608 6.9838 8.43305 6.99947 8.60241C7.01514 8.77177 6.96548 8.94071 6.86067 9.07466L6.80533 9.13733L5.27867 10.666H12.332C12.4953 10.666 12.6529 10.726 12.7749 10.8345C12.8969 10.943 12.9749 11.0925 12.994 11.2547Z" fill="#12B76A"/>
</g>
<defs>
<clipPath id="clip0_1_2">
<rect width="390" height="844" fill="white" transform="translate(-52 -559)"/>
</clipPath>
</defs>
</svg>
