<svg width="15" height="14" viewBox="0 0 15 14" fill="none" xmlns="http://www.w3.org/2000/svg">
<rect width="15" height="14" fill="#D2D2D2"/>
<g clip-path="url(#clip0_1_2)">
<rect width="390" height="844" transform="translate(-53 -517)" fill="#161616"/>
<rect width="390" height="672" transform="translate(-53 -179)" fill="#161616"/>
<rect x="-37" y="-117" width="358" height="198" rx="6" fill="#1E1E1E"/>
<path d="M13.3133 1.9L12.42 1.52667V7.54667L14.04 3.64C14.3133 2.96 14 2.18 13.3133 1.9ZM0.313317 4.36667L3.61998 12.3333C3.71735 12.5757 3.88344 12.7844 4.09783 12.9336C4.31221 13.0828 4.56554 13.1662 4.82665 13.1733C4.99998 13.1733 5.17998 13.14 5.35332 13.0667L10.2666 11.0333C10.7666 10.8267 11.0733 10.3333 11.0866 9.84C11.0933 9.66667 11.06 9.47333 11 9.3L7.66665 1.33333C7.57242 1.08935 7.40693 0.879374 7.19172 0.730744C6.9765 0.582115 6.72153 0.501712 6.45998 0.5C6.28665 0.5 6.11332 0.54 5.94665 0.6L1.03998 2.63333C0.713825 2.7669 0.454058 3.02452 0.317792 3.34956C0.181526 3.67459 0.179916 4.04044 0.313317 4.36667ZM11.08 1.83333C11.08 1.47971 10.9395 1.14057 10.6895 0.890524C10.4394 0.640476 10.1003 0.5 9.74665 0.5H8.77998L11.08 6.06" fill="#F79009"/>
</g>
<defs>
<clipPath id="clip0_1_2">
<rect width="390" height="844" fill="white" transform="translate(-53 -517)"/>
</clipPath>
</defs>
</svg>
